<?xml version="1.0" encoding="UTF-8"?>
<!DOCTYPE svg PUBLIC "-//W3C//DTD SVG 1.1//EN" "http://www.w3.org/Graphics/SVG/1.1/DTD/svg11.dtd">
<!-- Creator: CorelDRAW -->
<svg xmlns="http://www.w3.org/2000/svg" xml:space="preserve" width="215.9mm" height="279.4mm" version="1.1" style="shape-rendering:geometricPrecision; text-rendering:geometricPrecision; image-rendering:optimizeQuality; fill-rule:evenodd; clip-rule:evenodd"
viewBox="0 0 21590 27940"
 xmlns:xlink="http://www.w3.org/1999/xlink"
 xmlns:xodm="http://www.corel.com/coreldraw/odm/2003">
 <defs>
  <style type="text/css">
   <![CDATA[
    .fil0 {fill:black}
   ]]>
  </style>
 </defs>
 <g id="Capa_x0020_1">
  <metadata id="CorelCorpID_0Corel-Layer"/>
  <path class="fil0" d="M6653.16 22853c450.27,108.89 -19.27,52.53 688.93,155.04 530.18,76.74 253.74,56.63 825.32,56.63l0 -270.32 -70.56 191.96c-81.36,-234.15 -20.3,-4071.24 -8.39,-4895.81 7.52,-520.95 116.12,-369.9 -454.49,-1017.82l-621.77 -893.49c-569.69,-919.67 -915.13,-1758.91 -1145.1,-2842.49 -174.53,-822.35 -180.25,-1886.59 -44.67,-2749.56 45.56,-290.03 124.04,-596.66 143.13,-875.08 266.5,-11.29 452.75,86.69 554.87,95.56 170.41,14.82 130.24,40.56 143.1,-54.53 35.52,330.26 -19.26,173.39 88.18,411.19l26.54 61.55c3.79,8.77 7.67,22.47 13.32,32.84 2.83,-176.82 46.57,-386.92 75.69,-559.14 198.37,-1172.99 544.11,-2191.2 1112.54,-3226.62 163.38,-297.62 871.98,-1148.69 921.84,-1231.84 56.63,-94.43 60.53,-116.3 23.4,-251.85 -34.34,-125.39 -139.95,-291.4 -208.19,-395.1l-147.84 -169.66c-52.11,-42.54 -140.46,-98.38 -190.42,-127.08 -253.38,-145.53 -759.9,-178.79 -981.47,-134.58 -106.54,21.25 -32.43,-0.33 -82.31,28.27 -33.87,144.4 -18.9,111.1 98.92,221.96 259.74,244.42 266.97,219.9 588.38,398.74 -41.96,119.47 -227.68,256.95 -401.8,435.39 -374.18,383.43 -785.01,668.8 -1262.03,1207.05 -647.18,730.25 -1291.63,1497.91 -1752.18,2378.57 -54.78,104.74 -22.23,49.04 -77.67,127.61 -515.05,729.93 -875.72,1947.6 -1155.6,2800.38 -132.88,404.87 -201.64,925.99 -260.9,1383.58 -135.82,1048.65 21.37,2790.95 447.88,3716.56l175.08 463.09c185.71,424.86 616.03,1214.04 889.8,1577.82 128.3,170.5 237.94,320.6 358.05,489.89 364.34,513.55 1625.73,1598.74 2190.85,1934.75 199.39,118.56 341.95,254.15 493.39,345.19 -50.66,219.02 -337.06,442.66 -471.4,613.7 -92.58,117.86 -483.08,457.39 -522.42,567.65zm0 0c39.34,-110.26 429.84,-449.79 522.42,-567.65 134.34,-171.04 420.74,-394.68 471.4,-613.7 -151.44,-91.04 -294,-226.63 -493.39,-345.19 -565.12,-336.01 -1826.51,-1421.2 -2190.85,-1934.75 -120.11,-169.29 -229.75,-319.39 -358.05,-489.89 -273.77,-363.78 -704.09,-1152.96 -889.8,-1577.82l-175.08 -463.09c-426.51,-925.61 -583.7,-2667.91 -447.88,-3716.56 59.26,-457.59 128.02,-978.71 260.9,-1383.58 279.88,-852.78 640.55,-2070.45 1155.6,-2800.38 55.44,-78.57 22.89,-22.87 77.67,-127.61 460.55,-880.66 1105,-1648.32 1752.18,-2378.57 477.02,-538.25 887.85,-823.62 1262.03,-1207.05 174.12,-178.44 359.84,-315.92 401.8,-435.39 -321.41,-178.84 -328.64,-154.32 -588.38,-398.74 -117.82,-110.86 -132.79,-77.56 -98.92,-221.96 -147.76,13.23 -230.8,54.76 -341.55,111.12l-1710.9 1181.89c-40.7,31.75 -33,25.96 -58.73,47.09l-1744.23 1748.27c-49.14,61.1 -62.73,76.23 -111.85,135.1l-1162.02 1695.48c-128.92,193.47 -229.08,450.13 -333.04,654.73 -29.04,57.15 -52.39,96.43 -79.57,167.38 -35.84,93.53 -23.9,90.93 -68.85,178.1 -304.42,590.35 -580.44,1562.89 -688.09,2204.68 -194.33,1158.49 -175.15,2420.68 88.46,3525.23l446.64 1493.64c156.97,452.2 404,861.45 625.17,1279.83 29.12,55.08 47.17,89.76 86.84,160.1l98.56 148.39c46.65,65.86 54.73,90.03 96.1,150.84l881.9 1199.49c4.73,5.55 11.7,13.31 16.58,18.7 4.87,5.39 12.24,12.78 17.24,18.03l1548.29 1450.32c5.89,4.46 14.06,10.88 20.02,15.27 5.97,4.4 14.25,10.64 20.31,14.96l1046.87 717.01c216.24,119.5 370.98,284.88 644.2,346.28zm1514.25 -58.65l-0.69 -5266.67c-20.81,-583.99 0.6,-1212.65 0.05,-1801.89 -0.57,-606.04 146.87,-205.49 -295.95,-866.48l-327.09 -554.85c-627.79,-1260.04 -906.22,-2164.7 -790.11,-3660.3 11.03,-142.17 34.52,-292.23 37.95,-385.49 -5.65,-10.37 -9.53,-24.07 -13.32,-32.84l-26.54 -61.55c-107.44,-237.8 -52.66,-80.93 -88.18,-411.19 -12.86,95.09 27.31,69.35 -143.1,54.53 -102.12,-8.87 -288.37,-106.85 -554.87,-95.56 -19.09,278.42 -97.57,585.05 -143.13,875.08 -135.58,862.97 -129.86,1927.21 44.67,2749.56 229.97,1083.58 575.41,1922.82 1145.1,2842.49l621.77 893.49c570.61,647.92 462.01,496.87 454.49,1017.82 -11.91,824.57 -72.97,4661.66 8.39,4895.81l70.56 -191.96z"/>
  <path class="fil0" d="M12052.61 13821.9c-18.85,-16.95 -29.56,-56.71 -48.11,-74.36 297.37,-160.13 939.98,-1714.47 1111.52,-2173.29 551.08,-1473.97 842.92,-2549.67 547.49,-4130.3 -127.98,-684.7 -684.72,-1615.65 -1116.1,-2165.2 -214.18,-272.86 -434.75,-469.82 -865.15,-339.19 -112.64,34.19 -253.13,30.89 -335.35,62.72 209.46,0 13.58,13.17 101.15,-70.38l-675.4 171.09c-404.57,145.91 -699.18,338.88 -1014.76,608.01l-769.35 888.71c-216.15,333.17 -379.94,895.91 -449.13,1279.48 -94.41,523.37 -60.57,1328.06 9.5,1821.75 46.19,325.45 122.8,483.87 186.03,766.47 75.64,338.08 246.33,726.72 391.65,1054.74 39.55,89.28 115.44,223.36 176.23,317.66 71.98,111.67 119.64,180.76 193.12,300.76 70.58,115.29 134.97,164.19 218.4,275.49 23.44,31.28 64.87,85.25 94.33,117.34l840.58 746.92 1190.22 502.76c116.16,30.47 58.16,35.54 213.13,38.82zm-604.55 -8890c-87.57,83.55 108.31,70.38 -101.15,70.38 82.22,-31.83 222.71,-28.53 335.35,-62.72 430.4,-130.63 650.97,66.33 865.15,339.19 431.38,549.55 988.12,1480.5 1116.1,2165.2 295.43,1580.63 3.59,2656.33 -547.49,4130.3 -171.54,458.82 -814.15,2013.16 -1111.52,2173.29 18.55,17.65 29.26,57.41 48.11,74.36 472.14,0 594,26.07 1033.81,-55.15 541.38,-99.97 1129.71,-364.83 1545.93,-711.85l366.11 -374.73c4.76,-5.52 11.47,-13.51 16.21,-19.06 182.45,-214.11 358.35,-468.43 470.89,-728.56 36.54,-84.47 45.46,-116.34 77,-205.22 238.27,-671.56 385.11,-943.87 527.49,-1730.28 129.46,-715 168.49,-1355.45 75.39,-2056.52 -120.3,-905.9 -281.89,-1311.97 -816.15,-2006.07 -135.87,-176.51 -511.91,-442.46 -709.4,-560.61 -862.06,-515.73 -1707.35,-555.02 -2700.09,-479.55 -172.15,13.09 -354.95,37.6 -491.74,37.6zm3669.06 246.94c0,228.36 386.45,480.83 675.15,841.8 526.57,658.41 670.33,1401.69 870.27,2198.9 63.2,252.03 124.59,910.41 641.8,910.41 523.39,0 602.37,-580.77 692.01,-1142.43 87.3,-546.96 34.83,-1138.53 -131.6,-1640.47 -81.37,-245.43 -257.47,-574.19 -440.11,-759.34l-195.8 -192.25c-238.26,-215.3 -428.02,-337.41 -704.86,-459.31 -312.07,-137.42 -406.26,-180.64 -807.14,-180.64 -285.37,0 -599.72,153.15 -599.72,423.33zm-4805.57 1189.03c-777.89,237.1 -1245.16,1529.98 -354.7,1375.23 276.36,-48.02 591.47,-402.6 719.8,-617.67 195.71,-328 126.49,-907.39 -365.1,-757.56z"/>
  <path class="fil0" d="M11166.43 19072.94c0,1007.98 86.29,1521.76 610.07,2388.55l381.27 465.39c289.85,276.58 574.99,518.72 937.35,720.71 821.63,458.03 1820.63,341.18 2798.53,341.18 296.61,0 599.73,-61.15 599.73,-352.77l0 -3386.67c0,-158.82 -66.74,-352.78 -211.67,-352.78l-1905 0c-633.11,0 -919.11,1251.87 144.66,1445.66 410.92,74.86 313.95,-318.31 313.95,1341.29 -546.76,0 -1351.98,-425.03 -1575.39,-823.5 -38.54,-68.76 -4.69,-24.42 -52.62,-88.49 -4.41,-5.9 -11.27,-13.7 -15.91,-19.37 -4.62,-5.65 -12.04,-12.97 -16.82,-18.46 -6.74,-7.74 -27.75,-28.31 -34.55,-36 -671.11,-757.99 -483.59,-2307.68 200.13,-2943.51l351.69 -283.31c700.8,-491.56 1446.35,-55.97 2448.75,-55.97 169.78,0 456.89,-472.11 188.88,-929.72 -539.08,-920.43 -2671.34,-756.23 -3420.8,-256.09 -373.24,249.07 -601.01,359.7 -920.61,737.44 -66.45,78.54 -121.61,161.26 -182.11,241.23 -349.01,461.32 -639.53,1284.67 -639.53,1865.19z"/>
  <path class="fil0" d="M17018.42 18058.57c0,526.54 196.41,883.23 444.27,1178.51 105.94,126.2 285.93,284.48 410.74,400.64l465.69 380.98c382.95,323.65 1223.32,815.16 875.7,1400.22 -83.12,139.89 -136.64,177 -283.35,246.03 -29.01,13.64 8.36,4.96 -73.08,32.75 -432.23,147.51 -1138.05,-279.36 -1582.99,-30.77 -82.31,45.99 -47.89,30.63 -79.39,61.72 -391.7,386.65 -195.39,1445.19 1268.8,1445.19 849.7,0 1365.73,-173.92 1826.39,-643.04 220.29,-224.34 350.01,-474.88 431.66,-767.79 198.68,-712.79 78.96,-1233.76 -337.71,-1850.06 -60.63,-89.68 -60.76,-79.92 -129.98,-152.25 -323.95,-338.47 -35.65,-88.32 -474,-443.22l-833.14 -648.52c-93.96,-66.48 -95.97,-51.03 -172.06,-145.44 -177.51,-220.22 -296.13,-460.03 -134.27,-746.67 26.1,-46.21 136.34,-181.66 175.98,-212.08 5.88,-4.52 14.38,-10.49 20.65,-14.63 320.16,-211.28 773.6,-104.95 1100.5,-13.09 120.94,33.98 393.21,133.46 536.81,133.46 430.38,0 784.54,-901.76 -7.3,-1368.53 -642.25,-378.59 -1621.27,-321.44 -2294.16,-50.98l-601.44 386.33c-358.37,346.63 -554.32,912.56 -554.32,1421.24z"/>
  <path class="fil0" d="M8943.52 16753.07l0 5609.17c0,581.59 788.73,993.76 1315.35,468.69 141.7,-141.29 201.59,-234.57 201.59,-503.97l0 -5432.77c0,-1213.24 -1516.94,-1093.94 -1516.94,-141.12z"/>
  <path class="fil0" d="M12189.07 3379.68c0,256.98 41.31,537.19 165.54,716.4 70.43,101.6 187.34,203.25 328.35,236.1 38.72,-465.31 -31.04,-362.73 242.46,-956.99l327.2 -625.29c106.37,-192.58 310.87,-332.68 482.56,-469.94 89.22,-71.32 93.42,-68.32 208.74,-108.76l986.89 -283.11c171.82,-39.51 305.98,-162.06 503.81,-166.47 -39.8,478.27 -126.76,644.14 -329.2,940.8l-43.14 62.7c-4.41,5.94 -10.72,14.2 -15.24,20.04 -4.5,5.81 -11.04,13.91 -15.64,19.63l-98.7 112.96c-55.8,58.04 -71.36,72.54 -133.08,113.87 -73.05,-17.02 -65.79,-14.43 -134.5,-41.88 -155.77,-62.23 42.05,-63.95 -324.11,-63.95 -151.11,0 -236.92,302.89 -246.94,423.33l-105.84 0c-92.32,-396.3 -563.04,-270.24 -748.3,-7.47 -277.13,393.08 -207.38,1136.36 254.42,1136.36 204.92,0 359.18,-41.99 423.33,-282.22 258.71,21.53 509.69,51.2 772.71,-38.68 239.07,-81.7 356.6,-101.94 594.89,-251.77 6.43,-4.04 15,-9.82 21.28,-14.01 6.24,-4.17 14.66,-10.2 20.78,-14.49 894.05,-626.53 1211.85,-1840.84 1236.86,-2890.64 7.32,-307.47 75.08,-510.09 -35.97,-741.52 -224.4,5 -759.16,224.29 -1057.62,318.21 -551.82,173.66 -368.68,9.85 -600.54,351.96 -144.75,213.56 -1006.43,174.73 -1564.79,551.88l-121.33 90.33c-203.73,143.79 -101.47,16.75 -265.68,192.93 -92.46,99.19 -157.72,157.53 -235.62,258.27 -154.55,199.83 -272.41,311.95 -357.07,595.43 -30.08,100.74 -89.57,251.48 -99.68,358.93 -16.21,172.17 -36.83,298.36 -36.83,457.06z"/>
  <path class="fil0" d="M10495.74 2885.79c-32.17,138.06 -32.17,73.6 0,211.67 -342.82,79.86 -430.6,70.55 -776.11,70.55l0 -141.11 141.11 0 0 -141.11c-96.88,-22.57 -65.97,-29.18 -158.85,-52.81 -166.81,-42.45 -279.01,-11.63 -435.33,-234.96 -91.71,-131.03 -181.93,-482.17 -181.93,-700.01 368.52,0 101.37,11.74 294.52,58.25 312.09,75.16 774.27,118.8 1013.98,291.3 34.97,25.17 40.6,29.09 84.68,56.43 36.01,22.33 31.31,16.67 66.34,39.5 119.42,77.85 117.87,101.12 179.04,173.73 35.46,42.09 23.74,27.63 50.35,55.49 7.07,7.41 28.93,27.14 35.92,34.64 4.94,5.31 12.43,12.59 17.22,18.05 4.81,5.47 11.72,13.28 16.34,18.94 171.72,210.63 242.64,424.22 381.26,641.8l67.8 108.59c193.43,310.76 96.85,16.16 143.65,135.07 1.26,3.19 294.73,165.01 294.73,-502.9 0,-334.96 -151.22,-732.34 -352.41,-988.14 -111.2,-141.38 -233.99,-291.76 -380.87,-395.24 -225.79,-159.08 -328.3,-230.34 -585.85,-331.38 -213.48,-83.74 -364.62,-76.63 -567.74,-137.81 -329.68,-99.3 -949.6,-84.03 -1374.54,-248.24 -525.48,-203.07 -414,-30.48 -337.39,690.16 74.06,696.54 225.27,1252.5 744.72,1724.73l386.99 318.57c84.15,64.85 53.71,40.51 155.58,91.36 259.75,129.63 475.53,190.71 769.85,220.33 149.21,15.01 541.47,-63.94 663.03,-164.91l53.4 -52.43c71.42,-80.04 160.81,-313.47 72.01,-464.83l-246.92 -355.64c-6.26,-4.21 -14.47,-10.34 -21.24,-14.04 -77.89,-42.49 -112.74,-33.6 -213.34,-33.6z"/>
  <path class="fil0" d="M9019.13 14942.23c0,467.19 459.84,846.85 885.8,638.86 833.83,-407.15 284.68,-1573.72 -539.79,-1210.07 -88.51,39.05 -127.81,57.38 -181.27,136.23 -53.22,78.48 -164.74,322.52 -164.74,434.98z"/>
  <path class="fil0" d="M30840.92 22494.13c450.27,108.89 -19.27,52.53 688.93,155.04 530.18,76.74 253.74,56.63 825.32,56.63l0 -270.32 -70.56 191.96c-81.36,-234.15 -20.3,-4071.24 -8.39,-4895.81 7.52,-520.95 116.12,-369.9 -454.49,-1017.82l-621.77 -893.49c-569.69,-919.67 -915.13,-1758.91 -1145.1,-2842.49 -174.53,-822.35 -180.25,-1886.59 -44.67,-2749.56 45.56,-290.03 124.04,-596.66 143.13,-875.08 266.5,-11.29 452.75,86.69 554.87,95.56 170.41,14.82 130.24,40.56 143.1,-54.53 35.52,330.26 -19.26,173.39 88.18,411.19l26.54 61.55c3.79,8.77 7.67,22.47 13.32,32.84 2.83,-176.82 46.57,-386.92 75.69,-559.14 198.37,-1172.99 544.11,-2191.2 1112.54,-3226.62 163.38,-297.62 871.98,-1148.69 921.84,-1231.84 56.63,-94.43 60.53,-116.3 23.4,-251.85 -34.34,-125.39 -139.95,-291.4 -208.19,-395.1l-147.84 -169.66c-52.11,-42.54 -140.46,-98.38 -190.42,-127.08 -253.38,-145.53 -759.9,-178.79 -981.47,-134.58 -106.54,21.25 -32.43,-0.33 -82.31,28.27 -33.87,144.4 -18.9,111.1 98.92,221.96 259.74,244.42 266.97,219.9 588.38,398.74 -41.96,119.47 -227.68,256.95 -401.8,435.39 -374.18,383.43 -785.01,668.8 -1262.03,1207.05 -647.18,730.25 -1291.63,1497.91 -1752.18,2378.57 -54.78,104.74 -22.23,49.04 -77.67,127.61 -515.05,729.93 -875.72,1947.6 -1155.6,2800.38 -132.88,404.87 -201.64,925.99 -260.9,1383.58 -135.82,1048.65 21.37,2790.95 447.88,3716.56l175.08 463.09c185.71,424.86 616.03,1214.04 889.8,1577.82 128.3,170.5 237.94,320.6 358.05,489.89 364.34,513.55 1625.73,1598.74 2190.85,1934.75 199.39,118.56 341.95,254.15 493.39,345.19 -50.66,219.02 -337.06,442.66 -471.4,613.7 -92.58,117.86 -483.08,457.39 -522.42,567.65z"/>
  <path class="fil0" d="M30840.92 22494.13c39.34,-110.26 429.84,-449.79 522.42,-567.65 134.34,-171.04 420.74,-394.68 471.4,-613.7 -151.44,-91.04 -294,-226.63 -493.39,-345.19 -565.12,-336.01 -1826.51,-1421.2 -2190.85,-1934.75 -120.11,-169.29 -229.75,-319.39 -358.05,-489.89 -273.77,-363.78 -704.09,-1152.96 -889.8,-1577.82l-175.08 -463.09c-426.51,-925.61 -583.7,-2667.91 -447.88,-3716.56 59.26,-457.59 128.02,-978.71 260.9,-1383.58 279.88,-852.78 640.55,-2070.45 1155.6,-2800.38 55.44,-78.57 22.89,-22.87 77.67,-127.61 460.55,-880.66 1105,-1648.32 1752.18,-2378.57 477.02,-538.25 887.85,-823.62 1262.03,-1207.05 174.12,-178.44 359.84,-315.92 401.8,-435.39 -321.41,-178.84 -328.64,-154.32 -588.38,-398.74 -117.82,-110.86 -132.79,-77.56 -98.92,-221.96 -147.76,13.23 -230.8,54.76 -341.55,111.12l-1710.9 1181.89c-40.7,31.75 -33,25.96 -58.73,47.09l-1744.23 1748.27c-49.14,61.1 -62.73,76.23 -111.85,135.1l-1162.02 1695.48c-128.92,193.47 -229.08,450.13 -333.04,654.73 -29.04,57.15 -52.39,96.43 -79.57,167.38 -35.84,93.53 -23.9,90.93 -68.85,178.1 -304.42,590.35 -580.44,1562.89 -688.09,2204.68 -194.33,1158.49 -175.15,2420.68 88.46,3525.23l446.64 1493.64c156.97,452.2 404,861.45 625.17,1279.83 29.12,55.08 47.17,89.76 86.84,160.1l98.56 148.39c46.65,65.86 54.73,90.03 96.1,150.84l881.9 1199.49c4.73,5.55 11.7,13.31 16.58,18.7 4.87,5.39 12.24,12.78 17.24,18.03l1548.29 1450.32c5.89,4.46 14.06,10.88 20.02,15.27 5.97,4.4 14.25,10.64 20.31,14.96l1046.87 717.01c216.24,119.5 370.98,284.88 644.2,346.28z"/>
  <path class="fil0" d="M36240.37 13463.03c-18.85,-16.95 -29.56,-56.71 -48.11,-74.36 297.37,-160.13 939.98,-1714.47 1111.52,-2173.29 551.08,-1473.97 842.92,-2549.67 547.49,-4130.3 -127.98,-684.7 -684.72,-1615.65 -1116.1,-2165.2 -214.18,-272.86 -434.75,-469.82 -865.15,-339.19 -112.64,34.19 -253.13,30.89 -335.35,62.72 209.46,0 13.58,13.17 101.15,-70.38l-675.4 171.09c-404.57,145.91 -699.18,338.88 -1014.76,608.01l-769.35 888.71c-216.15,333.17 -379.94,895.91 -449.13,1279.48 -94.41,523.37 -60.57,1328.06 9.5,1821.75 46.19,325.45 122.8,483.87 186.03,766.47 75.64,338.08 246.33,726.72 391.65,1054.74 39.55,89.28 115.44,223.36 176.23,317.66 71.98,111.67 119.64,180.76 193.12,300.76 70.58,115.29 134.97,164.19 218.4,275.49 23.44,31.28 64.87,85.25 94.33,117.34l840.58 746.92 1190.22 502.76c116.16,30.47 58.16,35.54 213.13,38.82z"/>
  <path class="fil0" d="M35354.19 18714.07c0,1007.98 86.29,1521.76 610.07,2388.55l381.27 465.39c289.85,276.58 574.99,518.72 937.35,720.71 821.63,458.03 1820.63,341.18 2798.53,341.18 296.61,0 599.73,-61.15 599.73,-352.77l0 -3386.67c0,-158.82 -66.74,-352.78 -211.67,-352.78l-1905 0c-633.11,0 -919.11,1251.87 144.66,1445.66 410.92,74.86 313.95,-318.31 313.95,1341.29 -546.76,0 -1351.98,-425.03 -1575.39,-823.5 -38.54,-68.76 -4.69,-24.42 -52.62,-88.49 -4.41,-5.9 -11.27,-13.7 -15.91,-19.37 -4.62,-5.65 -12.04,-12.97 -16.82,-18.46 -6.74,-7.74 -27.75,-28.31 -34.55,-36 -671.11,-757.99 -483.59,-2307.68 200.13,-2943.51l351.69 -283.31c700.8,-491.56 1446.35,-55.97 2448.75,-55.97 169.78,0 456.89,-472.11 188.88,-929.72 -539.08,-920.43 -2671.34,-756.23 -3420.8,-256.09 -373.24,249.07 -601.01,359.7 -920.61,737.44 -66.45,78.54 -121.61,161.26 -182.11,241.23 -349.01,461.32 -639.53,1284.67 -639.53,1865.19z"/>
  <path class="fil0" d="M35635.82 4573.03c-87.57,83.55 108.31,70.38 -101.15,70.38 82.22,-31.83 222.71,-28.53 335.35,-62.72 430.4,-130.63 650.97,66.33 865.15,339.19 431.38,549.55 988.12,1480.5 1116.1,2165.2 295.43,1580.63 3.59,2656.33 -547.49,4130.3 -171.54,458.82 -814.15,2013.16 -1111.52,2173.29 18.55,17.65 29.26,57.41 48.11,74.36 472.14,0 594,26.07 1033.81,-55.15 541.38,-99.97 1129.71,-364.83 1545.93,-711.85l366.11 -374.73c4.76,-5.52 11.47,-13.51 16.21,-19.06 182.45,-214.11 358.35,-468.43 470.89,-728.56 36.54,-84.47 45.46,-116.34 77,-205.22 238.27,-671.56 385.11,-943.87 527.49,-1730.28 129.46,-715 168.49,-1355.45 75.39,-2056.52 -120.3,-905.9 -281.89,-1311.97 -816.15,-2006.07 -135.87,-176.51 -511.91,-442.46 -709.4,-560.61 -862.06,-515.73 -1707.35,-555.02 -2700.09,-479.55 -172.15,13.09 -354.95,37.6 -491.74,37.6z"/>
  <path class="fil0" d="M41206.18 17699.7c0,526.54 196.41,883.23 444.27,1178.51 105.94,126.2 285.93,284.48 410.74,400.64l465.69 380.98c382.95,323.65 1223.32,815.16 875.7,1400.22 -83.12,139.89 -136.64,177 -283.35,246.03 -29.01,13.64 8.36,4.96 -73.08,32.75 -432.23,147.51 -1138.05,-279.36 -1582.99,-30.77 -82.31,45.99 -47.89,30.63 -79.39,61.72 -391.7,386.65 -195.39,1445.19 1268.8,1445.19 849.7,0 1365.73,-173.92 1826.39,-643.04 220.29,-224.34 350.01,-474.88 431.66,-767.79 198.68,-712.79 78.96,-1233.76 -337.71,-1850.06 -60.63,-89.68 -60.76,-79.92 -129.98,-152.25 -323.95,-338.47 -35.65,-88.32 -474,-443.22l-833.14 -648.52c-93.96,-66.48 -95.97,-51.03 -172.06,-145.44 -177.51,-220.22 -296.13,-460.03 -134.27,-746.67 26.1,-46.21 136.34,-181.66 175.98,-212.08 5.88,-4.52 14.38,-10.49 20.65,-14.63 320.16,-211.28 773.6,-104.95 1100.5,-13.09 120.94,33.98 393.21,133.46 536.81,133.46 430.38,0 784.54,-901.76 -7.3,-1368.53 -642.25,-378.59 -1621.27,-321.44 -2294.16,-50.98l-601.44 386.33c-358.37,346.63 -554.32,912.56 -554.32,1421.24z"/>
  <path class="fil0" d="M33131.28 16394.2l0 5609.17c0,581.59 788.73,993.76 1315.35,468.69 141.7,-141.29 201.59,-234.57 201.59,-503.97l0 -5432.77c0,-1213.24 -1516.94,-1093.94 -1516.94,-141.12z"/>
  <path class="fil0" d="M36376.83 3020.81c0,256.98 41.31,537.19 165.54,716.4 70.43,101.6 187.34,203.25 328.35,236.1 38.72,-465.31 -31.04,-362.73 242.46,-956.99l327.2 -625.29c106.37,-192.58 310.87,-332.68 482.56,-469.94 89.22,-71.32 93.42,-68.32 208.74,-108.76l986.89 -283.11c171.82,-39.51 305.98,-162.06 503.81,-166.47 -39.8,478.27 -126.76,644.14 -329.2,940.8l-43.14 62.7c-4.41,5.94 -10.72,14.2 -15.24,20.04 -4.5,5.81 -11.04,13.91 -15.64,19.63l-98.7 112.96c-55.8,58.04 -71.36,72.54 -133.08,113.87 -73.05,-17.02 -65.79,-14.43 -134.5,-41.88 -155.77,-62.23 42.05,-63.95 -324.11,-63.95 -151.11,0 -236.92,302.89 -246.94,423.33l-105.84 0c-92.32,-396.3 -563.04,-270.24 -748.3,-7.47 -277.13,393.08 -207.38,1136.36 254.42,1136.36 204.92,0 359.18,-41.99 423.33,-282.22 258.71,21.53 509.69,51.2 772.71,-38.68 239.07,-81.7 356.6,-101.94 594.89,-251.77 6.43,-4.04 15,-9.82 21.28,-14.01 6.24,-4.17 14.66,-10.2 20.78,-14.49 894.05,-626.53 1211.85,-1840.84 1236.86,-2890.64 7.32,-307.47 75.08,-510.09 -35.97,-741.52 -224.4,5 -759.16,224.29 -1057.62,318.21 -551.82,173.66 -368.68,9.85 -600.54,351.96 -144.75,213.56 -1006.43,174.73 -1564.79,551.88l-121.33 90.33c-203.73,143.79 -101.47,16.75 -265.68,192.93 -92.46,99.19 -157.72,157.53 -235.62,258.27 -154.55,199.83 -272.41,311.95 -357.07,595.43 -30.08,100.74 -89.57,251.48 -99.68,358.93 -16.21,172.17 -36.83,298.36 -36.83,457.06z"/>
  <path class="fil0" d="M32355.17 22435.48l-0.69 -5266.67c-20.81,-583.99 0.6,-1212.65 0.05,-1801.89 -0.57,-606.04 146.87,-205.49 -295.95,-866.48l-327.09 -554.85c-627.79,-1260.04 -906.22,-2164.7 -790.11,-3660.3 11.03,-142.17 34.52,-292.23 37.95,-385.49 -5.65,-10.37 -9.53,-24.07 -13.32,-32.84l-26.54 -61.55c-107.44,-237.8 -52.66,-80.93 -88.18,-411.19 -12.86,95.09 27.31,69.35 -143.1,54.53 -102.12,-8.87 -288.37,-106.85 -554.87,-95.56 -19.09,278.42 -97.57,585.05 -143.13,875.08 -135.58,862.97 -129.86,1927.21 44.67,2749.56 229.97,1083.58 575.41,1922.82 1145.1,2842.49l621.77 893.49c570.61,647.92 462.01,496.87 454.49,1017.82 -11.91,824.57 -72.97,4661.66 8.39,4895.81l70.56 -191.96z"/>
  <path class="fil0" d="M39304.88 4819.97c0,228.36 386.45,480.83 675.15,841.8 526.57,658.41 670.33,1401.69 870.27,2198.9 63.2,252.03 124.59,910.41 641.8,910.41 523.39,0 602.37,-580.77 692.01,-1142.43 87.3,-546.96 34.83,-1138.53 -131.6,-1640.47 -81.37,-245.43 -257.47,-574.19 -440.11,-759.34l-195.8 -192.25c-238.26,-215.3 -428.02,-337.41 -704.86,-459.31 -312.07,-137.42 -406.26,-180.64 -807.14,-180.64 -285.37,0 -599.72,153.15 -599.72,423.33z"/>
  <path class="fil0" d="M34683.5 2526.92c-32.17,138.06 -32.17,73.6 0,211.67 -342.82,79.86 -430.6,70.55 -776.11,70.55l0 -141.11 141.11 0 0 -141.11c-96.88,-22.57 -65.97,-29.18 -158.85,-52.81 -166.81,-42.45 -279.01,-11.63 -435.33,-234.96 -91.71,-131.03 -181.93,-482.17 -181.93,-700.01 368.52,0 101.37,11.74 294.52,58.25 312.09,75.16 774.27,118.8 1013.98,291.3 34.97,25.17 40.6,29.09 84.68,56.43 36.01,22.33 31.31,16.67 66.34,39.5 119.42,77.85 117.87,101.12 179.04,173.73 35.46,42.09 23.74,27.63 50.35,55.49 7.07,7.41 28.93,27.14 35.92,34.64 4.94,5.31 12.43,12.59 17.22,18.05 4.81,5.47 11.72,13.28 16.34,18.94 171.72,210.63 242.64,424.22 381.26,641.8l67.8 108.59c193.43,310.76 96.85,16.16 143.65,135.07 1.26,3.19 294.73,165.01 294.73,-502.9 0,-334.96 -151.22,-732.34 -352.41,-988.14 -111.2,-141.38 -233.99,-291.76 -380.87,-395.24 -225.79,-159.08 -328.3,-230.34 -585.85,-331.38 -213.48,-83.74 -364.62,-76.63 -567.74,-137.81 -329.68,-99.3 -949.6,-84.03 -1374.54,-248.24 -525.48,-203.07 -414,-30.48 -337.39,690.16 74.06,696.54 225.27,1252.5 744.72,1724.73l386.99 318.57c84.15,64.85 53.71,40.51 155.58,91.36 259.75,129.63 475.53,190.71 769.85,220.33 149.21,15.01 541.47,-63.94 663.03,-164.91l53.4 -52.43c71.42,-80.04 160.81,-313.47 72.01,-464.83l-246.92 -355.64c-6.26,-4.21 -14.47,-10.34 -21.24,-14.04 -77.89,-42.49 -112.74,-33.6 -213.34,-33.6z"/>
  <path class="fil0" d="M33206.89 14583.36c0,467.19 459.84,846.85 885.8,638.86 833.83,-407.15 284.68,-1573.72 -539.79,-1210.07 -88.51,39.05 -127.81,57.38 -181.27,136.23 -53.22,78.48 -164.74,322.52 -164.74,434.98z"/>
  <path class="fil0" d="M34499.31 6009c-777.89,237.1 -1245.16,1529.98 -354.7,1375.23 276.36,-48.02 591.47,-402.6 719.8,-617.67 195.71,-328 126.49,-907.39 -365.1,-757.56z"/>
 </g>
</svg>
